<svg width="497" height="426" viewBox="0 0 497 426" fill="none" xmlns="http://www.w3.org/2000/svg">
<path d="M260.645 191.751C260.345 191.751 260.044 191.639 259.818 191.413C259.592 191.187 259.479 190.905 259.46 190.585L258.106 2.45188C258.106 1.81235 258.614 1.26687 259.272 1.26687L384.093 0.364014C384.394 0.364014 384.695 0.476871 384.92 0.702586C385.146 0.928301 385.259 1.21044 385.278 1.53021L386.651 189.645C386.651 190.284 386.143 190.83 385.485 190.83L260.645 191.751C260.664 191.751 260.664 191.751 260.645 191.751ZM260.457 3.61807L261.812 189.381L384.281 188.479L382.927 2.71521L260.457 3.61807Z" fill="#C2AC96"/>
<path d="M259.46 29.0299C258.821 29.0299 258.294 28.5032 258.294 27.8637C258.294 27.2242 258.821 26.6787 259.46 26.6787L383.434 25.7758C384.074 25.7758 384.601 26.3025 384.601 26.942C384.601 27.5815 384.074 28.127 383.434 28.127L259.46 29.0299C259.479 29.0299 259.46 29.0299 259.46 29.0299Z" fill="#C2AC96"/>
<path d="M321.344 190.811C320.704 190.811 320.178 190.284 320.178 189.645L318.993 27.4311C318.993 26.7915 319.501 26.2461 320.159 26.2461C320.798 26.2461 321.325 26.7727 321.325 27.4123L322.51 189.626C322.529 190.266 322.002 190.811 321.344 190.811Z" fill="#C2AC96"/>
<path d="M407.473 123.397C406.834 123.397 406.307 122.871 406.307 122.231L406.194 106.864C406.194 106.224 406.721 105.679 407.361 105.679C408 105.679 408.527 106.205 408.527 106.845L408.64 122.212C408.658 122.871 408.132 123.397 407.473 123.397C407.492 123.397 407.492 123.397 407.473 123.397Z" fill="#C2AC96"/>
<path d="M447.406 141.059C446.766 141.059 446.24 140.533 446.24 139.893L446.127 124.526C446.127 123.886 446.654 123.341 447.293 123.341C447.933 123.341 448.459 123.867 448.459 124.507L448.572 139.874C448.591 140.533 448.064 141.059 447.406 141.059C447.425 141.059 447.406 141.059 447.406 141.059Z" fill="#C2AC96"/>
<path d="M393.535 124.79C392.896 124.79 392.369 124.263 392.369 123.623C392.369 122.984 392.896 122.438 393.535 122.438L471.068 121.874C471.708 121.874 472.235 122.401 472.235 123.04C472.235 123.68 471.708 124.225 471.068 124.225L393.535 124.79Z" fill="#C2AC96"/>
<path d="M414.677 141.304C414.038 141.304 413.511 140.777 413.511 140.138C413.511 139.498 414.038 138.953 414.677 138.953L470.165 138.539C470.805 138.539 471.332 139.066 471.332 139.705C471.332 140.345 470.805 140.89 470.165 140.89L414.677 141.304Z" fill="#C2AC96"/>
<path d="M83.5532 230.932C82.9137 230.932 82.387 230.405 82.387 229.765L82.2742 214.398C82.2742 213.758 82.8008 213.213 83.4404 213.213C84.0799 213.213 84.6066 213.74 84.6066 214.379L84.7194 229.747C84.7382 230.405 84.2116 230.932 83.5532 230.932Z" fill="#C2AC96"/>
<path d="M43.8838 249.177C43.2443 249.177 42.7176 248.65 42.7176 248.011L42.6047 232.643C42.6047 232.004 43.1126 231.458 43.7709 231.458C44.4105 231.458 44.9371 231.985 44.9371 232.624L45.05 247.992C45.0688 248.65 44.5421 249.177 43.8838 249.177Z" fill="#C2AC96"/>
<path d="M19.9958 232.681C19.3563 232.681 18.8296 232.154 18.8296 231.515C18.8296 230.875 19.3374 230.33 19.9958 230.33L97.5289 229.766C98.1684 229.766 98.6951 230.292 98.6951 230.932C98.6951 231.571 98.1872 232.117 97.5289 232.117L19.9958 232.681Z" fill="#C2AC96"/>
<path d="M21.1432 249.346C20.5037 249.346 19.9771 248.82 19.9771 248.18C19.9771 247.54 20.4849 246.995 21.1432 246.995L76.6315 246.581C77.271 246.581 77.7977 247.108 77.7977 247.747C77.7977 248.387 77.271 248.932 76.6315 248.932L21.1432 249.346Z" fill="#C2AC96"/>
<path d="M495.821 410.77C495.878 417.73 384.976 424.182 248.137 425.178C111.297 426.175 0.32061 421.341 0.264182 414.382C0.207753 407.422 111.109 400.971 247.949 399.974C384.788 398.977 495.765 403.811 495.821 410.77Z" fill="#C2AC96"/>
<path d="M306.559 365.477L306.898 412.144L326.272 412.012L337.049 372.248L341.037 357.521L306.559 365.477Z" fill="#731F07"/>
<g opacity="0.5">
<g opacity="0.5">
<g opacity="0.5">
<g opacity="0.5">
<g opacity="0.5">
<path opacity="0.5" d="M306.559 365.477L306.653 377.383C315.437 376.349 327.946 374.035 337.049 372.248L341.037 357.521L306.559 365.477Z" fill="#731F07"/>
</g>
</g>
</g>
</g>
</g>
<path d="M197.445 366.267L197.783 412.952L178.428 413.084L167.067 373.49L162.854 358.818L197.445 366.267Z" fill="#731F07"/>
<g opacity="0.5">
<g opacity="0.5">
<g opacity="0.5">
<g opacity="0.5">
<g opacity="0.5">
<path opacity="0.5" d="M197.445 366.267L197.539 378.173C188.755 377.252 176.209 375.126 167.067 373.49L162.854 358.818L197.445 366.267Z" fill="#731F07"/>
</g>
</g>
</g>
</g>
</g>
<path d="M122.583 104.08C124.426 122.081 140.019 187.519 147.863 219.778C148.653 222.994 149.349 225.872 149.951 228.355C151.437 234.393 152.321 238.004 152.321 238.004L315.212 233.396C315.212 233.396 315.644 231.308 316.416 227.603C322.04 200.291 345.232 85.12 338.799 73.9471C338.348 73.1571 337.689 72.386 336.824 71.6336C336.222 71.0881 335.507 70.5614 334.717 70.0348C333.927 69.5081 333.025 69.0002 332.046 68.4924C320.215 62.3605 295.593 57.3571 267.642 54.498C234.688 51.1123 197.125 50.7361 170.51 55.0059C169.757 55.1188 169.005 55.2504 168.253 55.3821C166.315 55.7207 164.453 56.0592 162.666 56.4166C127.774 63.2821 121.078 72.8562 120.965 86.3238V86.3427C120.947 91.6281 121.906 97.5155 122.583 104.08Z" fill="#A5410F"/>
<path d="M313.952 198.504C314.29 198.504 314.591 198.26 314.648 197.921C314.704 197.639 319.651 169.218 323.62 140.345C325.952 123.379 327.476 109.554 328.172 99.3024C329.357 81.6778 327.833 78.1793 326.592 77.0695C319.388 70.693 282.333 66.0471 260.89 63.8464C250.62 62.793 240.162 62.5109 229.798 63.0187C205.026 64.2226 162.403 67.2509 155.218 73.9659C154.014 75.0945 152.585 78.6495 154.277 96.2365C155.255 106.488 157.193 120.237 159.996 137.147C164.773 165.907 170.548 194.178 170.604 194.46C170.679 194.836 171.056 195.081 171.432 195.006C171.808 194.93 172.052 194.554 171.977 194.178C171.921 193.896 166.165 165.663 161.387 136.922C153.036 86.6436 154.541 76.5616 156.177 75.0192C161.181 70.3357 188.022 66.4797 229.854 64.4483C240.143 63.9404 250.526 64.2226 260.721 65.2759C281.994 67.4578 318.73 72.0473 325.633 78.1605C327.326 79.6464 329.112 89.6907 322.209 140.176C318.259 169.03 313.312 197.432 313.256 197.714C313.181 198.09 313.444 198.466 313.839 198.542C313.858 198.504 313.914 198.504 313.952 198.504Z" fill="#731F07"/>
<path d="M120.985 86.324C121.097 91.2709 121.944 96.7069 122.565 102.707C124.408 120.708 140.001 186.146 147.845 218.405L174.46 218.217C174.46 218.217 144.327 111.36 142.409 85.0449C141.148 67.8718 153.77 59.8965 162.685 56.4167C127.794 63.2822 121.097 72.8563 120.985 86.324Z" fill="#731F07"/>
<path d="M316.359 229.672C316.359 229.672 343.746 226.813 346.06 236.706C347.865 244.437 346.022 313.732 345.138 343.846C344.893 351.746 351.025 358.367 358.925 358.762C360.675 358.856 362.499 358.912 364.399 358.969C373.484 359.232 383.773 359.025 390.826 357.37C406.175 353.777 406.514 331.958 411.705 295.731C416.897 259.504 421.392 195.006 387.572 182.855C386.406 182.441 385.24 182.065 384.074 181.707C351.514 172.114 320.686 191.77 320.686 191.77C313.331 212.555 316.359 229.672 316.359 229.672Z" fill="#731F07"/>
<path d="M364.38 358.968C373.465 359.232 383.754 359.025 390.808 357.37C406.156 353.777 406.495 331.958 411.686 295.731C416.878 259.503 421.373 195.005 387.554 182.854C386.387 182.441 385.221 182.064 384.055 181.707C378.318 183.118 373.07 186.974 370.286 195.363C362.725 218.16 375.572 297.01 364.38 358.968Z" fill="#A5410F"/>
<path d="M382.287 353.42C389.284 353.363 394.72 350.429 398.012 344.918C403.147 336.284 410.125 262.419 410.426 259.278C410.464 258.902 410.182 258.544 409.787 258.507C409.41 258.469 409.053 258.751 409.015 259.146C408.94 259.918 401.774 335.833 396.789 344.203C389.228 356.9 372.299 350.279 372.13 350.222C371.772 350.072 371.359 350.26 371.227 350.617C371.077 350.975 371.265 351.388 371.622 351.52C371.81 351.595 376.193 353.326 381.647 353.42C381.873 353.42 382.08 353.42 382.287 353.42Z" fill="#731F07"/>
<path d="M378.732 208.097C378.732 208.097 379.183 195.701 388.55 196.623C397.899 197.545 398.5 217.972 390.168 220.681C377.96 224.631 378.732 208.097 378.732 208.097Z" fill="#731F07"/>
<path d="M400.231 204.241C400.288 204.241 400.325 204.241 400.382 204.222C400.758 204.128 401.002 203.752 400.908 203.376C400.795 202.925 398.218 192.071 389.152 189.984C385.484 189.137 382.23 189.814 379.484 192.015C375.515 195.194 373.71 200.893 373.728 203.733C373.728 204.128 374.048 204.429 374.424 204.429C374.819 204.429 375.12 204.11 375.12 203.733C375.101 201.514 376.625 196.097 380.349 193.125C382.738 191.206 385.597 190.623 388.814 191.375C397.033 193.275 399.498 203.62 399.516 203.715C399.61 204.034 399.893 204.241 400.231 204.241Z" fill="#731F07"/>
<path d="M125.705 226.436C127.511 233.791 128.602 238.174 128.602 238.174L326.723 232.568C326.723 232.568 327.25 230.029 328.171 225.534C293.016 219.815 172.522 222.712 125.705 226.436Z" fill="#731F07"/>
<path d="M127.548 263.849C127.623 267.592 127.736 271.542 127.887 275.642C129.26 312.566 134.132 361.226 150.176 365.364C176.303 372.136 338.14 374.487 346.473 358.969C348.956 354.342 350.479 346.555 351.439 337.037C351.627 335.175 351.796 333.237 351.928 331.262C353.188 314.052 353.056 292.646 353.489 274.006C353.602 269.003 353.771 264.187 354.016 259.711C355.784 226.832 329.036 226.568 329.036 226.568C291.21 225.966 235.684 228.129 192.479 230.274C169.964 231.383 150.797 232.493 139.248 233.189C131.818 233.641 127.548 233.904 127.548 233.904C127.548 233.904 127.191 246.469 127.548 263.849Z" fill="#A5410F"/>
<path d="M254.833 338.222C258.087 338.203 261.454 338.147 264.933 338.052C317.149 336.604 347.112 324.641 347.413 324.51C347.846 324.322 348.072 323.832 347.884 323.381C347.696 322.948 347.206 322.723 346.755 322.911C346.454 323.024 316.754 334.892 264.877 336.322C212.944 337.752 184.353 330.566 184.071 330.51C183.601 330.397 183.149 330.66 183.018 331.131C182.905 331.582 183.168 332.052 183.638 332.184C183.902 332.24 209.031 338.56 254.833 338.222Z" fill="#731F07"/>
<path d="M127.548 263.849C127.624 267.592 127.736 271.542 127.887 275.643C129.26 312.566 134.132 361.226 150.176 365.364C176.303 372.136 338.14 374.487 346.473 358.969C348.956 354.342 350.479 346.555 351.439 337.037C351.627 335.175 351.796 333.237 351.928 331.262C344.291 336.435 321.306 343.319 305.487 345.05C239.541 352.292 188.115 343.451 188.115 343.451C196.523 307.656 193.796 250.626 192.46 230.236C169.945 231.346 150.778 232.456 139.229 233.152L127.548 263.849Z" fill="#731F07"/>
<path d="M321.531 234.75C319.613 236.499 317.469 238.155 315.08 239.716C315.004 239.772 314.929 239.81 314.854 239.866C313.18 240.957 311.412 241.973 309.55 242.951C308.873 243.309 308.195 243.647 307.518 243.967C302.082 246.6 295.932 248.782 289.329 250.362C288.727 250.513 288.126 250.644 287.505 250.776C285.756 251.171 283.969 251.51 282.163 251.81C281.561 251.923 280.94 252.017 280.338 252.111C273.36 253.165 266.043 253.56 258.67 253.165C257.805 253.108 256.939 253.071 256.074 252.995C253.76 252.826 251.447 252.563 249.152 252.205C249.096 252.205 249.039 252.187 248.983 252.187C248.287 252.074 247.591 251.98 246.895 251.848C243.152 251.209 239.446 250.325 235.797 249.215C232.619 248.255 229.477 247.108 226.411 245.754C225.885 245.528 225.377 245.284 224.85 245.058C224.211 244.757 223.552 244.456 222.932 244.136C222.875 244.117 222.819 244.08 222.743 244.042C219.057 233.603 215.257 196.473 214.242 185.356C214.035 183.137 213.884 180.936 213.753 178.716C213.734 178.34 213.715 177.945 213.696 177.569C213.658 176.986 213.64 176.422 213.621 175.839C213.452 171.795 213.414 167.732 213.452 163.612C213.452 162.954 213.47 162.277 213.489 161.619C213.489 161.299 213.489 160.96 213.508 160.64C213.508 160.603 213.508 160.546 213.508 160.509C213.527 160.039 213.527 159.568 213.546 159.079C213.658 154.828 213.847 150.521 214.091 146.138C214.11 145.724 214.129 145.329 214.166 144.916C214.185 144.709 214.185 144.502 214.204 144.295C214.354 141.737 214.524 139.141 214.712 136.527C214.731 136.132 214.768 135.718 214.806 135.304C214.825 135.153 214.825 135.003 214.843 134.853C215.295 128.57 215.803 122.1 216.292 115.366C216.555 111.679 217.025 108.256 217.646 105.115C217.721 104.72 217.797 104.343 217.891 103.967C219.17 98.1551 221.051 93.3586 223.571 89.6719C223.778 89.3522 224.004 89.0324 224.229 88.7315C225.057 87.6217 225.941 86.6436 226.882 85.7784C227.803 84.9319 228.781 84.1795 229.835 83.54C231.791 82.355 233.935 81.5838 236.286 81.2264C238.506 80.9067 240.519 80.4552 242.362 79.9474C242.7 79.8533 243.039 79.7593 243.359 79.6652C244.393 79.3643 245.371 79.0257 246.293 78.6871C246.763 78.499 247.234 78.3298 247.666 78.1417C248.024 77.9912 248.381 77.8407 248.72 77.6902C248.87 77.615 249.039 77.5586 249.19 77.4833C249.321 77.4269 249.472 77.3517 249.604 77.2952C249.848 77.1824 250.074 77.0695 250.3 76.9567C254.08 75.0757 256.225 73.3828 256.225 73.3828L282.219 73.6462C282.426 73.9471 282.633 74.2293 282.821 74.5114C282.84 74.5302 282.859 74.549 282.859 74.5678C283.875 75.9033 285.003 77.0319 286.207 77.9912C286.508 78.2357 286.828 78.4614 287.147 78.6871C287.731 79.101 288.332 79.4771 288.953 79.8345C289.386 80.0791 289.818 80.3048 290.232 80.5117C290.571 80.681 290.909 80.8314 291.248 80.9819C291.342 81.0195 291.436 81.076 291.53 81.1136C291.793 81.2264 292.038 81.3393 292.301 81.4333C292.433 81.4898 292.583 81.5462 292.715 81.6026C293.43 81.8848 294.145 82.1293 294.859 82.3738C294.878 82.3738 294.878 82.3738 294.897 82.3738C300.578 84.2548 306.371 85.1953 309.982 88.8443C310.359 89.2205 310.697 89.6343 311.036 90.0669C311.562 90.7817 312.033 91.5905 312.409 92.4934C312.785 93.3962 313.086 94.4119 313.293 95.5405C313.424 96.18 313.481 96.8572 313.5 97.6096C313.631 103.328 311.13 112.751 309.963 128.269C309.926 128.721 309.888 129.153 309.869 129.623C309.7 132.125 309.569 134.758 309.474 137.58C309.456 137.994 309.456 138.426 309.437 138.84C309.399 140.345 309.38 141.906 309.38 143.505C309.38 144.333 309.38 145.16 309.38 146.007C309.399 147.662 309.437 149.355 309.474 151.104C309.493 151.631 309.512 152.157 309.531 152.684C309.569 153.756 309.606 154.847 309.681 155.957C309.719 156.54 309.757 157.142 309.775 157.725C309.794 158.139 309.832 158.553 309.851 158.966C309.851 159.098 309.869 159.23 309.869 159.343C310.001 161.374 310.152 163.481 310.359 165.625C310.359 165.738 310.377 165.851 310.396 165.964C310.415 166.246 310.453 166.547 310.471 166.829C310.622 168.54 310.81 170.309 311.017 172.095C311.261 174.24 311.506 176.44 311.807 178.698C312.992 187.689 315.682 205.52 318.559 220.511C319.011 222.881 319.462 225.157 319.914 227.32C319.97 227.546 320.008 227.772 320.064 227.998C320.516 230.443 321.024 232.719 321.531 234.75Z" fill="white"/>
<path d="M327.287 135.435C320.986 135.435 314.929 133.272 309.813 129.642C309.794 129.623 309.757 129.604 309.738 129.586C308.779 128.908 307.876 128.175 307.01 127.423C298.753 120.2 294.352 109.685 292.527 98.9448C291.643 93.7158 290.778 87.1512 291.493 81.1133C291.756 81.2262 292 81.3391 292.264 81.4331C292.395 81.4895 292.546 81.546 292.678 81.6024C292.565 82.5617 292.527 83.521 292.508 84.4803C292.283 96.1046 294.559 108.688 300.879 118.582C302.59 121.272 304.697 123.773 307.067 125.937C307.97 126.764 308.929 127.554 309.907 128.269C314.929 131.974 320.911 134.269 327.287 134.269C328.021 134.288 328.021 135.435 327.287 135.435Z" fill="#D7C4AC"/>
<path d="M287.091 78.7058C284.608 82.9568 281.768 86.982 278.495 90.6687C268.714 101.729 254.908 109.591 239.992 110.268C239.672 110.287 239.334 110.306 239.014 110.306C231.546 110.494 224.079 108.688 217.571 105.133C213.997 103.196 210.743 100.713 207.922 97.7599C208.185 97.4966 208.467 97.2333 208.73 96.9699C211.364 99.7538 214.449 102.124 217.797 103.986C219.358 104.851 220.975 105.622 222.65 106.281C228.33 108.519 234.274 109.365 240.199 109.046C248.569 108.613 256.864 105.848 264.087 101.39C273.398 95.6721 280.696 87.3582 286.151 77.9723C286.47 78.2544 286.771 78.4801 287.091 78.7058Z" fill="#D7C4AC"/>
<path d="M271.874 98.7193C266.363 98.6629 261.322 95.1831 257.165 88.5433C253.61 82.8628 251.955 76.9378 251.898 76.6933C251.748 76.1666 252.068 75.6399 252.576 75.4894C253.102 75.339 253.629 75.6587 253.779 76.1666C253.836 76.3923 260.288 99.1519 274.225 96.5562C277.874 95.879 280.564 94.1862 282.257 91.5152C285.944 85.6842 283.743 77.0695 283.724 76.9942C283.593 76.4676 283.894 75.9409 284.42 75.8092C284.947 75.6775 285.474 75.9785 285.605 76.5052C285.699 76.9002 288.032 86.0228 283.894 92.5685C281.9 95.7097 278.777 97.7036 274.583 98.4748C273.661 98.6628 272.758 98.7381 271.874 98.7193Z" fill="#D5963D"/>
<path d="M320.14 142.696C319.576 142.865 319.03 143.035 318.466 143.185C317.751 142.865 317.055 142.527 316.34 142.188C314.027 141.097 311.713 139.987 309.4 138.859C308.403 138.37 307.425 137.9 306.428 137.411C289.217 129.04 271.555 120.708 252.068 120.933C246.049 121.009 240.18 121.987 234.632 123.943C230.136 125.523 225.848 127.742 221.86 130.602C219.321 132.426 216.932 134.439 214.656 136.583C212.323 138.746 210.123 141.06 207.997 143.43C207.583 143.317 207.188 143.185 206.793 143.053C209.333 140.213 211.966 137.467 214.788 134.909C217.684 132.276 220.769 129.83 224.117 127.705C227.766 125.391 231.584 123.642 235.497 122.401C252.35 117.04 271.103 120.858 287.449 127.479C293.901 130.094 300.221 133.122 306.522 136.169C307.5 136.639 308.459 137.11 309.437 137.58C312.973 139.329 316.547 141.041 320.14 142.696Z" fill="#D7C4AC"/>
<path d="M309.813 158.985C307.067 158.421 304.34 157.838 301.593 157.255C291.812 155.204 282.031 153.079 272.232 151.141C262.714 149.26 252.989 147.775 243.246 148.414C232.543 149.11 221.201 153.098 213.47 160.659C213.47 160.621 213.47 160.565 213.47 160.527C213.489 160.057 213.489 159.587 213.508 159.098C215.54 157.217 217.778 155.562 220.167 154.113C236.305 144.445 255.623 146.665 273.247 150.182C285.436 152.609 297.587 155.167 309.738 157.744C309.757 158.157 309.775 158.571 309.813 158.985Z" fill="#D7C4AC"/>
<path d="M249.792 186.899C248.231 194.818 244.732 202.68 241.215 209.903C237.641 217.239 233.164 224.142 227.239 229.803C226.713 230.311 225.885 229.502 226.43 228.995C232.525 223.182 237.039 216.035 240.65 208.473C243.773 201.928 246.801 194.93 248.438 187.839C250.074 180.804 249.51 172.603 242.738 168.447C237.095 165.004 229.722 165.437 224.023 168.465C219.885 170.666 216.537 173.901 213.696 177.569C213.659 176.986 213.64 176.422 213.621 175.839C217.026 171.682 221.126 168.127 226.205 166.208C232.092 163.97 239.428 164.421 244.544 168.296C250.356 172.716 251.127 180.203 249.792 186.899Z" fill="#D7C4AC"/>
<path d="M291.38 232.681C282.746 227.17 275.015 220.286 268.62 212.273C259.404 200.742 246.726 179.638 263.673 168.766C270.783 164.195 279.831 163.217 288.069 163.105C295.574 162.992 303.042 163.913 310.302 165.663C310.302 165.775 310.321 165.888 310.34 166.001C310.359 166.283 310.396 166.584 310.415 166.866C302.421 164.91 294.182 163.97 285.944 164.308C278.1 164.628 269.429 165.794 262.959 170.647C255.529 176.234 255.265 185.319 258.425 193.426C261.567 201.457 266.946 208.887 272.645 215.282C278.288 221.621 284.796 227.132 291.963 231.703C292.584 232.079 292.019 233.076 291.38 232.681Z" fill="#D7C4AC"/>
<path d="M206.624 125.354C202.636 128.645 197.238 128.984 192.442 127.423C190.786 126.877 189.225 126.144 187.758 125.279C187.965 124.921 188.172 124.564 188.36 124.206C193.608 127.404 199.495 128.909 205.044 125.109C209.652 121.968 210.33 116.4 207.809 111.642C206.323 108.858 204.01 106.732 201.47 104.889C201.715 104.588 201.959 104.306 202.185 104.024C205.176 106.224 207.884 108.801 209.389 112.281C211.402 116.908 210.593 122.081 206.624 125.354Z" fill="#D7C4AC"/>
<path d="M342.015 132.313C341.658 132.558 341.263 132.802 340.83 133.084C335.093 130.865 329.921 127.141 326.084 122.231C320.384 114.933 317.995 105.434 319.18 96.3304C319.519 96.6502 319.876 96.9888 320.215 97.3273C319.312 105.867 321.644 114.689 326.968 121.516C330.861 126.482 336.147 130.188 342.015 132.313Z" fill="#D7C4AC"/>
<path d="M242.005 93.1142C240.97 93.6221 239.898 93.9795 238.826 94.2052C234.707 95.0892 230.324 94.1487 226.656 91.9668C225.528 91.2897 224.474 90.5185 223.515 89.6721C222.687 88.9385 221.897 88.1297 221.183 87.2832C221.521 87.0952 221.86 86.8883 222.18 86.719C222.8 87.4337 223.459 88.1109 224.173 88.7504C224.963 89.4464 225.791 90.0859 226.694 90.6502C230.155 92.8509 234.387 93.9418 238.375 93.1518C239.409 92.9449 240.444 92.6064 241.441 92.1361C246.425 89.7285 248.833 84.6499 247.855 79.2516C247.798 78.8942 247.704 78.5368 247.629 78.1982C247.986 78.0478 248.344 77.8973 248.682 77.7468C248.908 78.612 249.077 79.4961 249.171 80.4178C249.66 85.8161 246.895 90.7442 242.005 93.1142Z" fill="#D7C4AC"/>
<path d="M233.878 290.539C233.878 290.539 231.94 291.367 228.799 292.778C227.896 293.173 226.918 293.624 225.846 294.113C224.416 294.753 222.874 295.467 221.2 296.257C220.26 296.69 219.263 297.16 218.266 297.63C205.739 303.555 189.28 312.02 183.223 318.039C182.791 318.471 182.396 318.885 182.001 319.299C172.878 328.892 172.069 335.588 169.793 334.779C167.423 333.933 165.768 328.629 168.364 324.321C170.17 321.349 171.016 317.399 173.292 312.81C173.913 311.568 174.628 310.289 175.512 308.973C179.386 303.142 186.177 296.483 189.75 291.743C189.976 291.442 190.202 291.141 190.39 290.84C193.268 286.702 193.155 279.498 199.306 275.943C202.315 274.212 206.265 273.742 210.215 273.911C210.911 273.93 211.626 273.987 212.322 274.043C213.356 274.137 214.391 274.269 215.388 274.419C216.761 274.626 218.078 274.89 219.281 275.153C220.448 275.416 221.501 275.68 222.423 275.924C224.642 276.526 226.034 277.015 226.034 277.015L233.878 290.539Z" fill="white"/>
<path d="M210.217 273.911C207.452 279.893 200.605 291.668 189.733 291.743C189.959 291.442 190.184 291.141 190.372 290.84C193.25 286.702 193.137 279.498 199.288 275.943C202.298 274.212 206.267 273.742 210.217 273.911Z" fill="#425045"/>
<path d="M181.984 319.299C172.861 328.892 172.052 335.588 169.776 334.779C167.406 333.933 165.751 328.629 168.347 324.321C170.152 321.349 170.999 317.399 173.275 312.81C176.359 314.108 179.764 316.158 181.984 319.299Z" fill="#425045"/>
<path d="M228.782 292.778C227.879 293.173 226.901 293.624 225.829 294.113C223.083 290.972 221.145 286.853 220.111 281.887C219.584 279.366 219.377 277.034 219.283 275.172C220.449 275.435 221.503 275.698 222.424 275.943C222.518 277.504 222.744 279.329 223.139 281.285C223.967 285.179 225.603 289.524 228.782 292.778Z" fill="#425045"/>
<path d="M215.39 274.419C214.393 274.269 213.377 274.137 212.324 274.043C212.098 276.018 211.872 279.291 212.267 283.015C212.907 289.034 214.957 294 218.249 297.63C219.264 297.16 220.243 296.69 221.183 296.257C214.468 289.674 214.919 278.651 215.39 274.419Z" fill="#425045"/>
<path d="M225.81 270.977C224.982 291.687 237.886 292.89 237.886 292.89C237.886 292.89 240.538 292.815 246.651 291.141C247.215 290.991 247.817 290.821 248.457 290.633C252.425 289.467 257.598 287.718 264.163 285.066C264.934 284.746 265.743 284.426 266.551 284.087C270.84 282.301 275.693 280.137 281.11 277.542C289.311 273.629 298.847 268.701 309.851 262.532C341.564 244.757 369.421 220.06 379.71 199.67C386.669 185.92 385.635 174.108 372.374 167.731C370.042 166.603 367.596 165.963 365.095 165.681C348.354 163.857 331.576 179.92 331.576 179.92C297.813 202.924 287.374 222.392 273.605 238.079C273.041 238.738 272.458 239.377 271.875 240.017C271.498 240.43 271.122 240.825 270.708 241.239C268.489 243.534 265.931 245.81 263.203 247.992C254.118 255.309 243.058 261.836 235.328 266.049C234.782 266.35 234.255 266.632 233.748 266.914C228.97 269.472 225.81 270.977 225.81 270.977Z" fill="#131E07"/>
<path d="M233.766 266.914C234.086 268.4 234.538 269.886 235.064 271.353C235.271 271.899 235.478 272.463 235.704 273.009C238.977 281.153 244.544 288.489 246.67 291.141C247.234 290.991 247.836 290.821 248.475 290.633C246.933 288.752 240.669 280.815 237.227 272.143C237.002 271.598 236.795 271.034 236.607 270.488C236.08 269.021 235.666 267.535 235.365 266.068C234.801 266.35 234.274 266.632 233.766 266.914Z" fill="#425045"/>
<path d="M379.729 199.67C364.587 186.579 364.004 172.942 365.095 165.7C367.597 165.964 370.042 166.622 372.374 167.732C385.635 174.108 386.688 185.902 379.729 199.67Z" fill="#425045"/>
<path d="M235.045 271.354C235.252 271.899 235.459 272.463 235.685 273.009C236.174 272.727 236.682 272.445 237.209 272.144C249.548 264.977 267.868 251.829 288.502 235.22C307.838 219.646 329.883 200.216 332.592 194.366C334.059 191.206 334.134 188.798 332.836 187.256C330.899 184.924 326.61 185.413 324.673 185.789C324.184 185.883 323.864 186.372 323.977 186.861C324.071 187.237 324.41 187.5 324.767 187.519C324.842 187.519 324.899 187.519 324.974 187.5C326.874 187.143 330.241 186.88 331.482 188.366C332.517 189.607 331.783 191.902 330.993 193.632C328.811 198.354 310.491 215.282 287.392 233.866C271.085 246.995 250.676 262.269 236.569 270.507C236.061 270.789 235.553 271.071 235.045 271.354Z" fill="#425045"/>
<path d="M229.778 267.554C232.976 277.786 237.378 286.834 244.6 293.097C244.6 293.097 240.18 297.649 235.083 295.843C231.189 294.47 221.465 279.31 222.518 270.112C225.189 267.968 227.634 266.952 229.778 267.554Z" fill="#425045"/>
<path d="M316.416 288.545C316.416 288.545 318.409 289.241 321.626 290.445C322.547 290.784 323.563 291.16 324.654 291.574C326.121 292.119 327.72 292.74 329.432 293.417C330.41 293.793 331.407 294.188 332.46 294.602C345.345 299.718 362.311 307.091 368.744 312.715C369.195 313.11 369.628 313.505 370.042 313.882C379.766 322.854 381.008 329.512 383.208 328.534C385.522 327.537 386.839 322.139 383.961 318.02C381.967 315.161 380.876 311.267 378.299 306.847C377.603 305.643 376.794 304.42 375.835 303.16C371.603 297.593 364.38 291.385 360.524 286.871C360.279 286.589 360.035 286.288 359.828 286.025C356.687 282.075 356.329 274.889 349.972 271.748C346.868 270.206 342.881 269.999 338.949 270.413C338.253 270.488 337.557 270.582 336.862 270.695C335.827 270.864 334.811 271.052 333.833 271.259C332.479 271.56 331.181 271.899 329.996 272.256C328.849 272.595 327.814 272.914 326.911 273.234C324.729 273.968 323.375 274.57 323.375 274.57L316.416 288.545Z" fill="white"/>
<path d="M338.949 270.413C342.109 276.206 349.671 287.511 360.543 286.89C360.298 286.608 360.054 286.307 359.847 286.043C356.706 282.093 356.348 274.908 349.991 271.767C346.868 270.206 342.881 269.999 338.949 270.413Z" fill="#425045"/>
<path d="M370.042 313.882C379.766 322.854 381.008 329.513 383.208 328.534C385.522 327.538 386.839 322.139 383.961 318.02C381.967 315.161 380.876 311.267 378.299 306.847C375.327 308.352 372.054 310.609 370.042 313.882Z" fill="#425045"/>
<path d="M321.645 290.445C322.566 290.783 323.582 291.16 324.673 291.573C327.212 288.263 328.886 284.031 329.601 278.99C329.958 276.45 330.034 274.099 329.977 272.237C328.83 272.576 327.795 272.895 326.892 273.215C326.892 274.776 326.798 276.62 326.516 278.576C325.971 282.545 324.616 286.984 321.645 290.445Z" fill="#425045"/>
<path d="M329.45 293.417C330.429 293.793 331.425 294.188 332.479 294.602C335.526 290.783 337.256 285.705 337.501 279.648C337.651 275.905 337.219 272.651 336.88 270.695C335.846 270.864 334.83 271.052 333.852 271.259C334.567 275.453 335.733 286.419 329.45 293.417Z" fill="#425045"/>
<path d="M165.13 209.451C177.488 228.656 207.151 248.838 238.807 264.018C268.997 278.482 287.938 285.291 298.866 288.508C299.223 288.62 299.581 288.715 299.938 288.809C308.12 291.141 311.412 291.329 311.412 291.329C311.412 291.329 324.203 289.298 322.058 268.682C322.058 268.682 318.259 265.748 312.578 261.365C312.089 260.989 311.581 260.594 311.074 260.199C300.258 251.867 283.856 239.245 273.116 230.988C243.02 207.852 240.255 209.206 212.511 186.484C212.511 186.484 195.037 171.173 179.106 172.246C175.645 172.471 172.259 173.337 169.155 175.086C155.688 182.666 156.064 195.344 165.13 209.451Z" fill="#131E07"/>
<path d="M298.885 288.489C298.923 288.545 298.961 288.602 299.017 288.639C299.149 288.752 299.299 288.827 299.45 288.865C299.619 288.903 299.788 288.884 299.958 288.809C300.052 288.771 300.164 288.696 300.24 288.602C306.24 282.225 309.776 272.012 311.488 265.842C311.657 265.221 311.808 264.638 311.958 264.112C312.259 262.927 312.466 261.967 312.598 261.365C312.108 260.989 311.601 260.594 311.093 260.199C311.074 260.237 311.074 260.256 311.074 260.293C311.074 260.331 310.848 261.478 310.378 263.284C310.246 263.811 310.096 264.394 309.927 265.015C308.271 270.996 304.792 281.228 299.017 287.398C298.697 287.718 298.66 288.15 298.885 288.489Z" fill="#425045"/>
<path d="M179.106 172.246C179.106 179.149 178.127 202.153 165.149 209.451C156.083 195.344 155.706 182.666 169.174 175.086C172.259 173.337 175.645 172.471 179.106 172.246Z" fill="#425045"/>
<path d="M212.398 194.893C215.464 200.573 238.713 218.536 259.027 232.832C279.21 247.052 297.211 258.394 309.907 265.015C310.453 265.297 310.979 265.56 311.487 265.824C311.657 265.203 311.807 264.62 311.958 264.093C311.431 263.83 310.904 263.548 310.378 263.265C295.932 255.666 276.125 242.707 260.043 231.383C235.816 214.323 216.424 198.617 213.941 194.046C213.038 192.391 212.173 190.134 213.113 188.836C214.242 187.275 217.628 187.312 219.546 187.538C219.584 187.538 219.621 187.538 219.659 187.538C220.073 187.538 220.43 187.237 220.505 186.823C220.599 186.334 220.261 185.864 219.753 185.789C217.797 185.544 213.489 185.337 211.703 187.783C210.499 189.457 210.724 191.845 212.398 194.893Z" fill="#425045"/>
<path d="M317.883 265.504C315.343 275.924 311.544 285.235 304.735 291.95C304.735 291.95 309.437 296.201 314.403 294.094C318.203 292.477 326.93 276.733 325.294 267.61C322.491 265.635 319.989 264.77 317.883 265.504Z" fill="#425045"/>
<path d="M356.217 177.08C351.834 187.595 341.545 187.237 330.429 171.287C323.996 162.051 318.353 152.421 313.933 144.295C312.221 141.154 310.716 138.239 309.4 135.662L309.569 120.426L328.397 108.312C328.397 108.312 335.244 118.959 342.241 132.125C350.912 148.414 359.791 168.522 356.217 177.08Z" fill="#E8A36F"/>
<path d="M287.938 199.595C297.437 193.106 309.099 185.469 313.726 181.331C325.106 171.136 345.081 154.809 355.521 162.841C355.521 162.841 364.173 179.657 350.028 190.773C336.561 201.363 306.353 213.157 292.264 217.652C290.628 211.69 288.766 205.727 287.938 199.595Z" fill="#E8A36F"/>
<path d="M328.962 169.782C329.112 169.782 329.263 169.726 329.394 169.613C334.68 165.023 342.185 162.183 342.26 162.145C342.618 162.014 342.806 161.6 342.674 161.242C342.542 160.885 342.128 160.697 341.771 160.829C341.451 160.941 333.946 163.801 328.473 168.541C328.172 168.804 328.153 169.236 328.397 169.537C328.529 169.726 328.755 169.801 328.962 169.782Z" fill="#B05935"/>
<path d="M330.109 168.842C330.448 168.823 330.73 168.578 330.767 168.24C331.219 165.08 335.169 162.014 335.207 161.976C335.507 161.732 335.564 161.299 335.338 160.979C335.094 160.678 334.661 160.603 334.341 160.848C334.153 160.979 329.902 164.309 329.357 168.033C329.3 168.428 329.564 168.785 329.959 168.823C330.015 168.842 330.071 168.842 330.109 168.842Z" fill="#B05935"/>
<path d="M344.103 130.884C344.103 130.884 343.464 131.354 342.279 132.144C342.204 132.2 342.11 132.257 342.034 132.313C341.677 132.558 341.282 132.802 340.849 133.084C339.495 133.931 337.765 134.965 335.733 136.075C335.413 136.244 335.075 136.433 334.736 136.602C330.786 138.69 325.783 140.966 320.159 142.696C319.594 142.865 319.049 143.035 318.485 143.185C318.372 143.223 318.278 143.242 318.165 143.279C317.789 143.392 317.431 143.486 317.036 143.58C316.039 143.844 315.005 144.088 313.97 144.295C312.898 144.521 311.807 144.728 310.716 144.897C310.716 144.897 310.209 144.408 309.343 143.524L309.437 135.661L309.607 120.426L309.964 88.8444C312.729 90.6877 315.851 93.1329 319.199 96.3118C319.538 96.6315 319.895 96.9701 320.234 97.3087C321.852 98.9075 323.544 100.676 325.256 102.632C325.519 102.933 325.764 103.215 326.027 103.516C328.83 106.77 331.727 110.551 334.661 114.914C334.924 115.291 335.169 115.686 335.432 116.081C338.291 120.426 341.207 125.335 344.103 130.884Z" fill="white"/>
<path d="M318.127 143.279C317.751 143.392 317.394 143.486 316.999 143.58C314.083 129.454 317.055 114.614 325.237 102.651C325.501 102.952 325.745 103.234 326.008 103.535C318.127 115.178 315.325 129.567 318.127 143.279Z" fill="#D7C4AC"/>
<path d="M335.715 136.075C335.395 136.245 335.056 136.433 334.718 136.602C331.821 129.812 331.67 121.968 334.661 114.915C334.925 115.291 335.169 115.686 335.432 116.081C332.893 122.627 333.081 129.812 335.715 136.075Z" fill="#D7C4AC"/>
<path d="M199.533 109.271C199.533 109.271 166.052 163.029 172.729 178.415C177.262 188.855 187.551 188.366 198.423 172.246C213.734 149.58 224.324 124.695 224.324 124.695L199.533 109.271Z" fill="#E8A36F"/>
<path d="M241.328 199.934C231.735 193.576 219.96 186.128 215.277 182.065C203.746 172.039 183.545 155.995 173.218 164.196C173.218 164.196 164.81 181.124 179.106 192.053C192.724 202.454 223.101 213.796 237.265 218.085C238.826 212.066 240.594 206.085 241.328 199.934Z" fill="#E8A36F"/>
<path d="M199.89 170.722C199.74 170.722 199.589 170.666 199.458 170.553C194.097 166.039 186.554 163.311 186.479 163.274C186.103 163.142 185.915 162.728 186.046 162.371C186.178 161.995 186.592 161.807 186.949 161.938C187.269 162.051 194.812 164.797 200.36 169.462C200.661 169.707 200.699 170.158 200.454 170.459C200.304 170.647 200.097 170.741 199.89 170.722Z" fill="#B05935"/>
<path d="M198.724 169.801C198.385 169.782 198.103 169.537 198.047 169.199C197.558 166.058 193.551 163.029 193.514 162.992C193.194 162.766 193.138 162.315 193.363 161.995C193.589 161.675 194.04 161.619 194.36 161.844C194.548 161.976 198.856 165.249 199.439 168.954C199.495 169.331 199.232 169.707 198.856 169.763C198.799 169.801 198.762 169.801 198.724 169.801Z" fill="#B05935"/>
<path d="M240.199 109.065C240.143 109.46 240.068 109.873 239.993 110.268C239.748 111.547 239.428 112.864 239.014 114.2C238.206 116.889 236.964 119.673 235.497 122.401C235.215 122.908 234.933 123.416 234.632 123.924C228.049 135.342 217.797 145.555 217.797 145.555C216.556 145.386 215.333 145.16 214.129 144.934C212.023 144.502 209.973 143.994 207.997 143.392C207.584 143.279 207.189 143.147 206.794 143.016C193.646 138.878 184.185 132.012 184.185 132.012C185.37 129.642 186.573 127.385 187.777 125.241C187.984 124.883 188.191 124.526 188.379 124.169C192.818 116.325 197.257 109.986 201.489 104.87C201.734 104.569 201.978 104.287 202.204 104.005C204.16 101.672 206.079 99.6033 207.922 97.76C208.186 97.4967 208.468 97.2333 208.731 96.97C213.471 92.3805 217.722 89.3145 221.145 87.3019C221.484 87.1138 221.823 86.9069 222.142 86.7376C226.694 84.1983 229.553 83.5964 229.741 83.5776C233.409 85.8535 236.419 89.0888 238.337 93.1705C238.507 93.509 238.657 93.8664 238.808 94.2238C240.519 98.3807 241.121 103.365 240.199 109.065Z" fill="white"/>
<path d="M240.199 109.064C240.143 109.459 240.067 109.873 239.992 110.268C239.672 110.287 239.334 110.306 239.014 110.306C231.547 110.494 224.079 108.688 217.571 105.133C213.997 103.196 210.743 100.713 207.922 97.7598C208.185 97.4965 208.467 97.2332 208.731 96.9698C211.364 99.7537 214.449 102.124 217.797 103.986C219.358 104.851 220.976 105.622 222.65 106.281C228.33 108.538 234.293 109.384 240.199 109.064Z" fill="#D7C4AC"/>
<path d="M235.478 122.4C235.196 122.908 234.914 123.416 234.613 123.924C230.117 125.504 225.829 127.724 221.841 130.583C219.302 132.407 216.913 134.42 214.637 136.564C212.305 138.727 210.104 141.041 207.978 143.411C207.565 143.298 207.17 143.166 206.775 143.035C209.314 140.194 211.947 137.448 214.769 134.89C217.665 132.257 220.75 129.811 224.098 127.686C227.766 125.391 231.566 123.642 235.478 122.4Z" fill="#D7C4AC"/>
<path d="M206.624 125.354C202.636 128.645 197.238 128.984 192.442 127.423C190.786 126.877 189.225 126.144 187.758 125.278C187.965 124.921 188.172 124.564 188.36 124.206C193.608 127.404 199.495 128.909 205.044 125.109C209.652 121.968 210.33 116.4 207.809 111.641C206.323 108.858 204.01 106.732 201.47 104.889C201.715 104.588 201.959 104.306 202.185 104.023C205.176 106.224 207.884 108.801 209.389 112.281C211.402 116.908 210.593 122.081 206.624 125.354Z" fill="#D7C4AC"/>
<path d="M238.826 94.2238C234.707 95.1078 230.324 94.1674 226.656 91.9855C225.528 91.3083 224.475 90.5371 223.515 89.6907C222.688 88.9571 221.898 88.1483 221.183 87.3019C221.521 87.1138 221.86 86.9069 222.18 86.7376C222.8 87.4523 223.459 88.1295 224.174 88.769C224.964 89.465 225.791 90.1045 226.694 90.6688C230.155 92.8695 234.387 93.9605 238.375 93.1705C238.525 93.509 238.676 93.8664 238.826 94.2238Z" fill="#D7C4AC"/>
<path d="M218.549 145.367C218.681 145.367 218.813 145.33 218.907 145.235C230.531 135.304 237.171 120.369 237.227 120.238C237.359 119.955 237.227 119.617 236.926 119.485C236.644 119.354 236.306 119.485 236.174 119.786C236.118 119.937 229.572 134.627 218.154 144.389C217.91 144.596 217.891 144.953 218.098 145.198C218.23 145.292 218.38 145.367 218.549 145.367Z" fill="#131E07"/>
<path d="M231.829 129.51C231.867 129.51 231.885 129.51 231.923 129.51C236.099 128.777 239.879 125.899 240.03 125.767C240.274 125.579 240.331 125.222 240.143 124.977C239.955 124.733 239.597 124.676 239.353 124.864C239.315 124.883 235.647 127.686 231.735 128.382C231.434 128.438 231.227 128.739 231.283 129.04C231.321 129.322 231.566 129.51 231.829 129.51Z" fill="#131E07"/>
<path d="M309.437 142.828C309.738 142.828 309.982 142.602 310.001 142.301C310.058 141.436 311.431 120.877 308.29 112.112C308.177 111.811 307.857 111.66 307.556 111.773C307.255 111.886 307.105 112.206 307.217 112.507C310.265 121.046 308.873 142.038 308.854 142.245C308.835 142.565 309.061 142.828 309.38 142.847C309.418 142.828 309.437 142.828 309.437 142.828Z" fill="#131E07"/>
<path d="M234.274 233.979L227.615 221.527C225.96 218.423 228.217 214.661 231.735 214.68L335.056 215.038L332.121 231.063L234.274 233.979Z" fill="#A36A24"/>
<path d="M330.033 231.59L237.584 232.267C235.346 232.286 233.728 230.481 233.954 228.261L239.842 171.099C240.067 168.86 242.061 167.036 244.299 167.017L336.748 166.34C338.987 166.321 340.604 168.127 340.379 170.346L334.491 227.509C334.266 229.747 332.272 231.571 330.033 231.59Z" fill="#D5963D"/>
<path d="M236.512 232.907C236.474 232.907 236.456 232.907 236.418 232.907C235.985 232.85 235.684 232.474 235.741 232.041L242.964 170.797C243.02 170.365 243.396 170.064 243.829 170.12C244.262 170.177 244.563 170.553 244.506 170.986L237.283 232.23C237.227 232.606 236.907 232.907 236.512 232.907Z" fill="#A36A24"/>
<path d="M281.242 198.523C280.922 203.113 284.326 207.044 288.859 207.307C293.392 207.57 297.305 204.053 297.625 199.464C297.944 194.874 294.54 190.943 290.007 190.698C285.492 190.416 281.561 193.933 281.242 198.523Z" fill="#A36A24"/>
<path d="M330.805 234.731L237.077 235.409C235.007 235.427 233.409 233.622 233.672 231.571L234.518 225.026L335.112 224.292L334.153 231.76C333.927 233.452 332.498 234.713 330.805 234.731Z" fill="#A36A24"/>
<path d="M88.2365 238.475C88.2365 238.475 87.1831 232.474 87.8415 223.258C88.8948 208.549 98.9203 195.927 113.027 191.639C124.689 188.103 140.113 185.846 155.951 190.51C157.117 190.849 158.283 191.225 159.45 191.658C193.25 203.809 188.774 268.307 183.582 304.534C178.391 340.78 178.052 362.599 162.704 366.173C155.65 367.809 145.361 368.016 136.276 367.772C134.376 367.715 132.552 367.64 130.803 367.565C130.803 367.565 111.711 369.371 101.836 361.038C91.9608 352.705 88.2365 238.475 88.2365 238.475Z" fill="#731F07"/>
<path d="M136.257 367.772C145.342 368.035 155.631 367.828 162.685 366.173C178.033 362.599 178.372 340.761 183.563 304.534C188.755 268.307 193.25 203.809 159.43 191.658C158.264 191.244 157.098 190.868 155.932 190.51C150.195 191.921 144.947 195.777 142.163 204.166C134.602 226.963 147.449 305.813 136.257 367.772Z" fill="#A5410F"/>
<path d="M155.255 361.621C162.252 361.565 167.688 358.63 170.98 353.119C176.133 344.486 183.093 270.62 183.394 267.479C183.432 267.103 183.149 266.746 182.754 266.708C182.359 266.67 182.021 266.952 181.983 267.347C181.908 268.119 174.742 344.034 169.757 352.404C166.597 357.709 161.518 360.323 154.672 360.229C149.461 360.154 145.135 358.442 145.098 358.423C144.74 358.273 144.326 358.461 144.195 358.818C144.044 359.176 144.232 359.59 144.59 359.721C144.778 359.797 149.16 361.527 154.615 361.621C154.822 361.621 155.048 361.621 155.255 361.621Z" fill="#731F07"/>
<path d="M147.393 212.123C147.788 212.123 148.089 211.803 148.089 211.408C148.07 209.188 149.593 203.771 153.318 200.799C155.706 198.881 158.566 198.297 161.782 199.05C169.983 200.95 172.466 211.295 172.485 211.389C172.579 211.765 172.955 212.01 173.331 211.916C173.707 211.822 173.952 211.445 173.858 211.069C173.745 210.618 171.168 199.765 162.102 197.677C158.434 196.83 155.18 197.507 152.434 199.708C148.465 202.887 146.659 208.586 146.678 211.427C146.678 211.822 146.998 212.123 147.393 212.123Z" fill="#731F07"/>
<path d="M151.098 216.43C151.098 216.43 151.55 204.034 160.917 204.956C170.265 205.878 170.867 226.305 162.534 229.014C150.327 232.964 151.098 216.43 151.098 216.43Z" fill="#731F07"/>
<path d="M254.739 38.6791C254.739 38.6791 244.356 44.7546 248.043 48.9491C251.73 53.1625 255.755 52.3161 255.755 52.3161C255.755 52.3161 250.676 58.1658 256.583 61.6268C262.47 65.0878 269.298 50.9806 269.298 50.9806C269.298 50.9806 263.166 34.8984 254.739 38.6791Z" fill="#A36A24"/>
<path d="M251.805 36.0459C251.805 36.0459 244.751 25.9075 247.29 20.3963C249.83 14.8851 254.005 15.6563 254.005 15.6563C254.005 15.6563 252.764 5.48034 257.786 2.86581C262.808 0.251274 269.279 3.43009 269.279 3.43009C269.279 3.43009 272.966 2.52723 279.022 2.88461C284.533 3.20438 285.568 7.45534 285.568 7.45534C285.568 7.45534 300.033 4.38938 304.603 9.18582C309.174 13.9823 302.816 20.1518 302.816 20.1518C302.816 20.1518 317.544 21.5437 314.949 31.588C312.936 39.3752 300.879 39.1871 300.879 39.1871C300.879 39.1871 302.722 48.3285 294.202 48.6859C290.778 48.8364 261.623 33.5066 251.805 36.0459Z" fill="#A36A24"/>
<path d="M254.363 75.6967C258.069 79.327 262.526 81.2456 266.288 82.2801C272.138 83.9165 278.891 82.3177 283.443 79.6467L283.781 70.8815L283.856 69.0946L283.988 65.7088L263.185 51.0186L261.981 50.1721L261.172 49.6078L260.871 50.3602L260.533 51.2255L260.627 51.6017C258.764 60.066 257.711 69.6965 254.363 75.6967Z" fill="#E8A36F"/>
<path d="M283.518 77.8221C275.054 75.4897 270.634 67.853 268.79 63.6209C272.872 67.1571 277.856 69.5459 282.427 69.2638C282.916 69.2261 283.405 69.1697 283.857 69.0945L283.518 77.8221Z" fill="#131E07"/>
<path d="M260.194 50.36C260.232 50.3788 260.288 50.3788 260.326 50.3788C260.382 50.661 260.439 50.9431 260.514 51.2253C260.551 51.3569 260.57 51.4698 260.608 51.6015C262.997 60.141 273.455 69.8091 282.427 69.2637C282.916 69.226 283.405 69.1696 283.857 69.0944C292.321 67.6084 294.785 57.9215 294.014 50.8679C294.014 50.8679 294.033 50.6046 294.089 50.1343C294.108 49.965 294.127 49.7769 294.145 49.57C294.221 48.9117 294.315 48.0088 294.446 46.9555C294.446 46.9367 294.446 46.9367 294.446 46.9179C294.841 43.7579 295.481 39.1119 296.403 34.56C298.001 26.5283 293.299 14.2833 276.953 10.5214C260.608 6.75944 253.78 18.5719 253.818 27.1114C253.818 29.2557 254.231 31.7386 254.833 34.259C253.253 34.2779 251.542 35.049 250.507 37.7576C248.57 42.7422 254.363 49.4572 260.194 50.36Z" fill="#E8A36F"/>
<path d="M287.299 55.5329C284.571 56.2476 281.693 55.3824 279.85 53.2381C279.417 52.7302 280.132 51.959 280.584 52.4669C282.182 54.329 284.609 55.1379 286.998 54.4983C287.675 54.329 287.957 55.3448 287.299 55.5329Z" fill="#B05935"/>
<g opacity="0.5">
<g opacity="0.5">
<g opacity="0.5">
<g opacity="0.5">
<g opacity="0.5">
<g opacity="0.5">
<path opacity="0.5" d="M270.219 46.0529C270.125 46.9557 272.307 47.9526 275.11 48.2724C277.913 48.5922 280.264 48.1031 280.377 47.2003C280.489 46.2974 278.289 45.3005 275.486 44.9807C272.665 44.661 270.314 45.1312 270.219 46.0529Z" fill="#B05935"/>
</g>
</g>
</g>
</g>
</g>
</g>
<g opacity="0.5">
<g opacity="0.5">
<g opacity="0.5">
<g opacity="0.5">
<g opacity="0.5">
<g opacity="0.5">
<path opacity="0.5" d="M294.089 50.1534C294.108 49.9842 294.126 49.7961 294.145 49.5892C294.221 48.9308 294.315 48.028 294.446 46.9746C294.446 46.9558 294.446 46.9558 294.446 46.937C292.151 46.843 290.365 47.3132 290.289 48.1032C290.195 48.8744 291.813 49.7208 294.089 50.1534Z" fill="#B05935"/>
</g>
</g>
</g>
</g>
</g>
</g>
<path d="M276.088 35.6137C275.825 35.5385 275.599 35.388 275.392 35.1811C274.734 34.5228 274.734 33.4506 275.392 32.7735C275.542 32.623 279.323 28.9551 283.875 31.043C284.721 31.438 285.098 32.4349 284.703 33.3001C284.308 34.1466 283.311 34.5228 282.446 34.1278C280 32.9992 277.8 35.1623 277.781 35.1811C277.329 35.6513 276.671 35.783 276.088 35.6137Z" fill="#A36A24"/>
<path d="M293.637 37.5887C293.167 37.4382 292.753 37.0997 292.565 36.5918C292.039 35.2563 289.687 34.9742 289.086 34.9554C288.145 34.9554 287.393 34.1842 287.411 33.2437C287.411 32.3032 288.183 31.5508 289.123 31.5697C291.023 31.5885 294.559 32.3973 295.744 35.3316C296.083 36.1968 295.669 37.1937 294.804 37.5323C294.39 37.7016 293.995 37.7016 293.637 37.5887Z" fill="#A36A24"/>
<path d="M291.023 43.4575C290.816 44.6048 290.177 45.4513 289.575 45.3572C288.973 45.2632 288.653 44.2475 288.86 43.1001C289.067 41.9527 289.707 41.1063 290.308 41.2003C290.91 41.2944 291.23 42.3101 291.023 43.4575Z" fill="#131E07"/>
<path d="M287.618 40.8051C287.562 40.7863 287.505 40.7299 287.487 40.6735C287.411 40.523 287.449 40.3349 287.599 40.2596C287.731 40.1844 290.665 38.5668 292.96 40.523C293.092 40.6358 293.111 40.8239 292.998 40.9556C292.885 41.0873 292.697 41.1061 292.565 40.9932C290.59 39.3192 287.938 40.7863 287.9 40.8051C287.806 40.8427 287.694 40.8427 287.618 40.8051Z" fill="#131E07"/>
<path d="M294.935 37.1184C291.23 36.3096 287.581 38.6608 286.753 42.3663C286.584 43.0999 286.565 43.8334 286.621 44.5294L287.788 44.962C287.637 44.2096 287.656 43.4008 287.825 42.6108C288.502 39.4884 291.568 37.5322 294.691 38.2094C297.794 38.8865 299.769 41.9525 299.092 45.0749C298.415 48.1972 295.33 50.1534 292.227 49.4763C290.778 49.1565 289.556 48.3289 288.766 47.2003L287.825 47.7458C288.766 49.1377 290.233 50.1723 292.001 50.5484C295.688 51.3384 299.355 49.0061 300.164 45.3006C300.973 41.5763 298.622 37.9272 294.935 37.1184Z" fill="white"/>
<path d="M271.668 41.4258C272.477 37.7391 276.145 35.3879 279.832 36.1779C283.518 36.9867 285.87 40.6546 285.08 44.3413C284.271 48.0279 280.603 50.3791 276.916 49.5891C273.211 48.7803 270.859 45.1124 271.668 41.4258ZM272.722 41.6515C272.045 44.7551 274.02 47.8398 277.123 48.517C280.227 49.1941 283.311 47.2191 283.989 44.1155C284.666 41.012 282.691 37.9272 279.587 37.25C276.484 36.5729 273.399 38.5479 272.722 41.6515Z" fill="white"/>
<path d="M298.754 45.6203C298.923 45.6579 299.111 45.6203 299.243 45.4886C299.469 45.2817 299.469 44.9431 299.262 44.7174C299.205 44.661 297.964 43.3631 295.462 42.9305C295.161 42.8741 294.879 43.081 294.823 43.3819C294.766 43.6829 294.973 43.965 295.274 44.0214C297.4 44.3976 298.453 45.4698 298.472 45.4886C298.566 45.545 298.66 45.6015 298.754 45.6203Z" fill="white"/>
<path d="M272.872 38.9616C268.32 36.8173 264.972 36.9301 262.978 37.3816L263.091 38.4913C264.859 38.0775 268.038 37.9082 272.42 39.9585C272.684 40.0901 273.022 39.9773 273.154 39.6951C273.267 39.4318 273.154 39.0932 272.872 38.9616Z" fill="white"/>
<path d="M254.833 34.2592C254.833 34.2592 258.482 33.9206 260.721 36.1026C262.959 38.2657 262.827 43.8333 265.856 44.1342C268.884 44.4352 264.802 30.234 266.401 28.259C267.981 26.284 276.84 28.6163 279.549 25.1366C282.239 21.6756 285.436 21.6944 288.54 24.9297C291.643 28.1649 299.167 31.1556 298.547 26.3216C297.926 21.4875 286.527 8.67819 276.596 8.37724C266.683 8.07629 256.394 10.2394 253.723 20.152C251.052 30.0459 254.833 34.2592 254.833 34.2592Z" fill="#A36A24"/>
<path d="M264.577 49.8899C264.163 50.3978 263.674 50.774 263.185 51.0373C262.282 51.5075 261.323 51.6204 260.627 51.6204C260.589 51.4887 260.551 51.3759 260.533 51.2442C260.457 50.9621 260.401 50.6799 260.345 50.379C260.307 50.379 260.269 50.3602 260.213 50.3602C260.401 50.379 260.627 50.379 260.871 50.3602C261.21 50.3414 261.586 50.3037 261.981 50.1721C262.564 50.0028 263.147 49.683 263.617 49.0999C263.824 48.8366 264.219 48.799 264.483 49.0059C264.746 49.2504 264.784 49.6266 264.577 49.8899Z" fill="#B05935"/>
<path d="M283.179 57.9591C282.333 57.6958 281.938 57.0563 281.919 57.0187C281.806 56.8306 281.863 56.586 282.051 56.4732C282.239 56.3603 282.484 56.4168 282.596 56.6049C282.615 56.6425 283.142 57.4513 284.289 57.2444C284.515 57.2068 284.722 57.3572 284.759 57.5641C284.797 57.7899 284.647 57.9968 284.44 58.0344C283.932 58.1096 283.518 58.072 283.179 57.9591Z" fill="#B05935"/>
<path d="M259.235 46.0715C258.99 45.9962 258.821 45.7705 258.802 45.5072C258.595 41.1434 253.761 38.5853 253.724 38.5476C253.423 38.3972 253.31 38.021 253.46 37.72C253.611 37.4191 253.987 37.3062 254.288 37.4567C254.514 37.5695 259.78 40.3534 260.044 45.4508C260.063 45.7893 259.799 46.0715 259.461 46.0903C259.385 46.0903 259.31 46.0903 259.235 46.0715Z" fill="#B05935"/>
<path d="M254.269 42.9304C254.194 42.9116 254.118 42.874 254.062 42.8175C253.799 42.5918 253.761 42.2156 253.987 41.9523C254.043 41.8771 255.473 40.203 257.937 40.6544C258.275 40.7109 258.501 41.0306 258.426 41.3692C258.351 41.7078 258.05 41.9335 257.711 41.8583C255.943 41.5385 254.946 42.7235 254.946 42.7423C254.758 42.9492 254.495 43.0056 254.269 42.9304Z" fill="#B05935"/>
<path d="M285.775 49.4197C285.624 49.3821 285.512 49.288 285.418 49.1375C285.248 48.8366 285.342 48.4604 285.643 48.2911L289.217 46.222L286.377 44.9994C286.208 44.9242 286.095 44.7925 286.038 44.6232L283.725 37.0994C283.631 36.7796 283.8 36.4223 284.139 36.3282C284.458 36.2342 284.816 36.4035 284.91 36.742L287.148 43.9837L290.854 45.5825C291.06 45.6766 291.211 45.8835 291.23 46.1092C291.249 46.3349 291.117 46.5606 290.929 46.6735L286.302 49.3632C286.114 49.4573 285.925 49.4761 285.775 49.4197Z" fill="#B05935"/>
<path d="M284.477 41.1437C284.647 41.1813 284.835 41.1437 284.966 41.0121C285.136 40.8428 286.038 40.1092 286.979 41.0497C287.186 41.2566 287.543 41.2566 287.75 41.0497C287.957 40.8428 287.957 40.4854 287.75 40.2785C286.358 38.8678 284.835 39.6201 284.214 40.222C283.988 40.429 283.988 40.7675 284.195 40.9932C284.289 41.0685 284.383 41.1249 284.477 41.1437Z" fill="white"/>
<path d="M280.997 41.8962C280.79 43.0436 280.151 43.89 279.549 43.796C278.947 43.7019 278.627 42.6862 278.834 41.5388C279.041 40.3914 279.681 39.545 280.283 39.639C280.866 39.7331 281.185 40.7488 280.997 41.8962Z" fill="#131E07"/>
<path d="M277.047 39.5823C276.991 39.5635 276.935 39.5259 276.897 39.4694C276.803 39.3378 276.822 39.1309 276.953 39.0368C277.066 38.9428 279.775 36.9678 282.314 38.623C282.465 38.7171 282.502 38.9052 282.408 39.0556C282.314 39.2061 282.126 39.2437 281.975 39.1497C279.812 37.739 277.348 39.5259 277.33 39.5447C277.235 39.5823 277.141 39.6011 277.047 39.5823Z" fill="#131E07"/>
<path d="M129.825 37.2306L106.087 13.8503C105.786 13.5493 105.372 13.38 104.921 13.3988C104.488 13.4177 104.074 13.6058 103.792 13.9255L70.1606 51.3378C69.8973 51.6387 69.7468 52.0149 69.7468 52.4099L72.2861 399.597L75.4649 399.578L72.9256 52.993L105.052 17.2736L127.605 39.5065C128.226 40.1273 129.242 40.1084 129.843 39.4877C130.464 38.8482 130.445 37.8513 129.825 37.2306Z" fill="#131E07"/>
<path d="M106.614 413.967L41.3255 414.438L41.3067 411.992C41.2315 402.87 48.586 395.421 57.7087 395.365L89.9859 395.12C99.1086 395.045 106.557 402.4 106.614 411.522V413.967Z" fill="#131E07"/>
<path d="M162.459 48.5349C167.706 54.554 167.086 63.7143 161.067 68.9621C155.048 74.21 145.887 73.5893 140.639 67.5702C135.392 61.5324 136.012 52.3909 142.031 47.143C148.05 41.8763 157.211 42.4971 162.459 48.5349Z" fill="white"/>
<path d="M183.356 34.108C167.65 20.0949 143.593 19.6246 127.304 33.807C111.015 48.0083 108.212 71.8964 119.949 89.3705L183.356 34.108Z" fill="#131E07"/>
<path d="M473.57 343.676L473.401 344.955L473.212 346.479L472.968 348.285L472.009 355.846L471.896 356.674L470.88 364.593L470.767 365.439L466.723 396.832L466.629 397.679L464.541 413.874L419.079 414.212L418.42 409.623L418.307 408.776L417.95 406.312L417.818 405.503L415.824 391.584L415.693 390.606L411.216 359.439L411.066 358.461L410.257 352.818L409.015 344.147L473.57 343.676Z" fill="#D5963D"/>
<path d="M423.837 378.531C423.066 383.76 420.113 388.537 415.824 391.566L415.692 390.606C421.034 386.6 424.138 379.603 422.915 372.944C421.768 366.718 417.047 361.602 411.216 359.42L411.065 358.442C412.871 359.063 414.601 359.966 416.163 361.113C421.674 365.12 424.834 371.74 423.837 378.531Z" fill="#A36A24"/>
<path d="M472.009 355.846L471.896 356.655C466.403 356.109 461.268 357.878 456.754 361C452.879 363.69 448.967 366.963 444.02 367.019C439.788 367.057 435.556 364.818 433.355 361.188C430.985 357.295 431.06 352.272 433.336 348.379C433.618 347.89 434.371 348.322 434.089 348.811C431.041 354.022 432.433 360.962 437.568 364.273C442.12 367.207 447.218 366.304 451.6 363.558C455.757 360.944 459.35 357.69 464.221 356.429C466.817 355.752 469.451 355.583 472.009 355.846Z" fill="#A36A24"/>
<path d="M473.401 344.956L473.212 346.479C472.78 347.156 472.291 347.777 471.745 348.379C469.262 351.144 465.839 353.025 462.096 353.495C457.864 354.022 453.556 352.63 450.321 349.921C449.644 349.357 449.005 348.717 448.421 348.04C448.064 347.627 448.666 347.006 449.023 347.42C449.795 348.322 450.66 349.131 451.6 349.827C454.478 351.934 458.052 353.025 461.663 352.668C465.012 352.348 468.115 350.787 470.466 348.454C471.444 347.476 472.31 346.366 472.987 345.162C473.081 344.993 473.25 344.937 473.401 344.956Z" fill="#A36A24"/>
<path d="M470.879 364.593L470.767 365.439C469.13 365.515 467.513 366.041 466.139 367.057C463.431 369.07 462.152 372.681 462.904 375.954C463.506 378.55 465.124 380.882 465.199 383.628C465.255 385.829 464.259 387.86 462.829 389.497C459.124 393.748 453.293 394.651 448.948 397.98C444.471 401.422 443.004 407.968 445.806 412.952C446.013 413.329 446.258 413.686 446.502 414.043H445.449C445.242 413.723 445.035 413.385 444.866 413.028C442.421 408.231 443.399 401.949 447.311 398.243C451.957 393.823 459.556 393.334 463.13 387.653C465.237 384.324 463.845 381.315 462.622 377.985C461.644 375.352 461.512 372.662 462.679 370.066C464.221 366.662 467.475 364.743 470.879 364.593Z" fill="#A36A24"/>
<path d="M458.39 406.143C458.334 409.585 460.328 412.463 463.149 413.893L461.494 413.911C458.955 412.106 457.337 409.096 457.544 405.71C457.845 400.688 461.964 397.039 466.742 396.832L466.629 397.679C462.209 397.923 458.447 401.497 458.39 406.143Z" fill="#A36A24"/>
<path d="M454.873 379.603C454.478 383.383 450.923 385.603 448.196 387.71C444.603 390.493 441.123 393.522 438.49 397.265C435.104 402.08 433.336 408.607 435.085 414.1H434.182C432.64 408.946 433.919 402.945 436.778 398.262C438.941 394.726 441.894 391.735 445.054 389.083C446.597 387.785 448.233 386.581 449.832 385.34C451.732 383.873 453.669 382.048 453.97 379.528C454.61 373.979 447.462 373.17 443.55 373.471C439.562 373.772 435.405 375.145 433.016 378.549C430.74 381.785 430.326 385.923 429.649 389.722C428.916 393.748 427.768 397.829 425.286 401.159C423.48 403.585 420.79 405.485 417.912 406.312L417.799 405.504C419.135 405.146 420.414 404.525 421.542 403.698C425.643 400.688 427.543 395.723 428.521 390.907C429.273 387.258 429.574 383.44 431.173 380.017C432.64 376.875 435.255 374.693 438.509 373.584C441.876 372.417 446.07 372.06 449.512 373.001C452.522 373.828 455.23 376.292 454.873 379.603Z" fill="#A36A24"/>
<path d="M427.298 414.137H426.414C426.056 412.614 425.323 411.203 423.931 410.319C422.144 409.153 420.225 409.059 418.42 409.604L418.307 408.777C420.583 408.081 422.99 408.325 425.097 410.112C426.32 411.184 426.978 412.614 427.298 414.137Z" fill="#A36A24"/>
<path d="M473.57 343.676L473.401 344.955L473.212 346.479L472.968 348.285L471.745 348.379L470.466 348.473L451.619 349.827L450.321 349.921L410.257 352.818L409.015 344.147L473.57 343.676Z" fill="#171612"/>
<path d="M479.325 344.015C453.989 346.347 428.633 346.536 403.278 344.579L403.222 337.676L479.269 337.131L479.325 344.015Z" fill="#D5963D"/>
<path d="M461.362 255.836C459.011 258.695 457.374 269.247 452.841 270.978C449.719 272.163 448.026 267.667 454.045 261.911C457.92 258.206 459.632 253.804 460.346 251.133C459.237 246.488 457.807 241.729 455.982 237.402C452.503 240.657 446.935 245.284 445.317 243.102C443.549 240.732 448.722 233.17 451.6 229.296C450.227 227.339 448.722 225.628 447.029 224.273C444.283 222.054 441.104 220.812 437.417 220.925C434.765 221.019 432.339 221.997 430.157 223.634C433.317 229.785 438 240.186 434.784 242.613C431.812 244.87 427.411 236.255 424.646 229.822C420.865 235.747 418.363 243.835 417.31 251.641C418.062 253.033 419.379 254.651 421.617 256.231C427.561 260.444 434.634 268.965 431.135 270.902C427.636 272.84 423.931 267.818 421.298 263.341C419.943 261.046 418.42 259.184 416.783 257.961C416.746 259.334 416.746 260.651 416.802 261.949C417.912 286.458 441.838 286.27 441.838 286.27C441.838 286.27 465.782 280.57 461.362 255.836ZM431.248 256.532C428.878 256.532 425.078 252.13 423.291 249.685C421.504 247.221 422.915 245.547 424.608 245.998C424.627 245.998 424.646 246.017 424.683 246.017C427.072 246.732 434.314 256.551 431.248 256.532ZM452.089 250.513C452.108 250.513 452.145 250.494 452.164 250.494C453.857 250.005 455.268 251.133 454.478 253.297C453.462 256.137 452.07 257.284 449.945 256.231C448.59 255.573 449.7 251.246 452.089 250.513Z" fill="#7F784B"/>
<path d="M439.017 249.854C441.199 260.557 440.597 271.636 439.882 282.47C439.111 294.038 438.039 305.644 438.565 317.249C438.866 323.832 439.694 330.397 441.33 336.792C441.462 337.338 442.308 337.093 442.177 336.548C436.327 313.581 441.387 290.126 441.387 266.877C441.387 261.084 441.01 255.29 439.863 249.591C439.75 249.064 438.904 249.309 439.017 249.854Z" fill="#171612"/>
<path d="M428.521 286.476C428.314 290.182 433.204 299.662 430.571 303.744C428.746 306.546 424.74 303.894 426.207 295.712C427.147 290.427 425.925 285.875 424.947 283.298C421.316 280.194 417.348 277.203 413.322 274.777C412.438 279.461 410.67 286.476 408.075 285.668C405.253 284.784 404.971 275.642 405.009 270.808C402.751 270.037 400.513 269.548 398.35 269.454C394.833 269.285 391.522 270.15 388.607 272.426C386.519 274.062 385.127 276.282 384.337 278.896C390.525 282 400.419 287.643 399.272 291.48C398.2 295.054 389.566 290.69 383.547 287.135C383.998 294.151 386.745 302.164 390.488 309.086C391.917 309.763 393.93 310.289 396.676 310.252C403.955 310.139 414.714 312.866 413.021 316.478C411.347 320.108 405.385 318.227 400.607 316.177C398.162 315.123 395.83 314.522 393.779 314.503C394.55 315.631 395.34 316.703 396.149 317.7C411.498 336.83 430.721 322.572 430.721 322.572C430.721 322.572 446.672 303.875 428.521 286.476ZM404.614 304.816C402.695 306.208 397.033 304.891 394.155 303.969C391.259 303.048 391.409 300.847 393.046 300.226C393.065 300.226 393.083 300.207 393.121 300.207C395.453 299.361 407.096 303.01 404.614 304.816ZM417.893 287.662C417.912 287.643 417.931 287.624 417.931 287.605C419.003 286.213 420.809 286.288 421.448 288.508C422.295 291.405 421.843 293.135 419.511 293.549C418.062 293.812 416.407 289.655 417.893 287.662Z" fill="#7F784B"/>
<path d="M406.908 294.809C412.57 299.944 418.175 305.267 422.765 311.418C426.282 316.12 428.991 321.293 431.455 326.597C433.204 330.359 434.859 334.159 436.571 337.921C436.797 338.428 437.549 337.977 437.324 337.469C434.521 331.262 431.906 324.942 428.634 318.961C425.699 313.6 422.05 308.728 417.893 304.27C414.62 300.734 411.103 297.424 407.529 294.188C407.115 293.812 406.495 294.433 406.908 294.809Z" fill="#171612"/>
<path d="M449.625 326.842C449.625 326.842 468.961 340.949 484.159 321.707C484.949 320.691 485.739 319.619 486.492 318.491C484.441 318.528 482.128 319.13 479.683 320.221C474.924 322.309 468.98 324.228 467.268 320.616C465.557 317.005 476.297 314.202 483.557 314.259C486.304 314.277 488.297 313.732 489.727 313.036C493.432 306.095 496.122 298.045 496.498 291.029C490.517 294.64 481.921 299.06 480.811 295.505C479.626 291.668 489.482 285.95 495.652 282.809C494.843 280.194 493.432 277.994 491.344 276.357C488.429 274.1 485.1 273.273 481.582 273.461C479.419 273.574 477.2 274.081 474.943 274.871C475.018 279.705 474.811 288.866 471.989 289.769C469.412 290.596 467.569 283.58 466.666 278.915C462.641 281.361 458.71 284.389 455.098 287.53C454.12 290.126 452.935 294.697 453.932 299.963C455.456 308.146 451.468 310.816 449.625 308.033C446.954 303.989 451.769 294.471 451.543 290.765C433.524 308.258 449.625 326.842 449.625 326.842ZM487.075 304.177C487.093 304.196 487.131 304.196 487.15 304.196C488.805 304.816 488.956 306.998 486.078 307.957C483.2 308.898 477.557 310.252 475.62 308.879C473.099 307.111 484.723 303.368 487.075 304.177ZM460.61 297.744C458.277 297.349 457.807 295.618 458.635 292.722C459.274 290.502 461.061 290.408 462.152 291.781C462.171 291.8 462.19 291.819 462.19 291.838C463.694 293.831 462.077 297.988 460.61 297.744Z" fill="#7F784B"/>
<path d="M472.61 298.29C461.08 310.027 451.939 323.607 443.117 337.432C442.816 337.903 443.568 338.335 443.869 337.865C452.653 324.115 461.738 310.591 473.231 298.891C473.626 298.496 473.005 297.876 472.61 298.29Z" fill="#171612"/>
<path d="M479.269 337.112C479.269 337.808 462.246 338.504 441.255 338.654C420.244 338.805 403.222 338.372 403.222 337.657C403.222 336.961 420.244 336.265 441.236 336.115C462.246 335.964 479.269 336.416 479.269 337.112Z" fill="#171612"/>
</svg>
