<svg width="268" height="125" viewBox="0 0 268 125" fill="none" xmlns="http://www.w3.org/2000/svg">
<path d="M1.5053 26.6001C1.5053 25.8081 1.6373 25.1121 1.9013 24.5121C2.1893 23.8881 2.5733 23.3481 3.0533 22.8921C3.5333 22.4361 4.0853 22.0761 4.7093 21.8121C5.3573 21.5481 6.0533 21.3561 6.7973 21.2361L11.1533 20.5881C11.6573 20.5161 12.0053 20.3721 12.1973 20.1561C12.3893 19.9161 12.4853 19.6401 12.4853 19.3281C12.4853 18.7041 12.2333 18.1641 11.7293 17.7081C11.2493 17.2521 10.5053 17.0241 9.4973 17.0241C8.4413 17.0241 7.6253 17.3121 7.0493 17.8881C6.4973 18.4641 6.1853 19.1361 6.1133 19.9041L1.8653 19.0041C1.9373 18.3081 2.1533 17.6121 2.5133 16.9161C2.8733 16.2201 3.3653 15.5961 3.9893 15.0441C4.6133 14.4921 5.3813 14.0481 6.2933 13.7121C7.2053 13.3521 8.2613 13.1721 9.4613 13.1721C10.8533 13.1721 12.0413 13.3641 13.0253 13.7481C14.0093 14.1081 14.8013 14.6001 15.4013 15.2241C16.0253 15.8241 16.4693 16.5321 16.7333 17.3481C17.0213 18.1641 17.1653 19.0161 17.1653 19.9041V28.6161C17.1653 29.0961 17.1893 29.6121 17.2373 30.1641C17.2853 30.6921 17.3333 31.1121 17.3813 31.4241H12.9893C12.9413 31.1841 12.8933 30.8601 12.8453 30.4521C12.8213 30.0201 12.8093 29.6361 12.8093 29.3001C12.3533 29.9961 11.6933 30.6081 10.8293 31.1361C9.9893 31.6641 8.9093 31.9281 7.5893 31.9281C6.6533 31.9281 5.8013 31.7721 5.0333 31.4601C4.2893 31.1721 3.6533 30.7881 3.1253 30.3081C2.5973 29.8041 2.1893 29.2401 1.9013 28.6161C1.6373 27.9681 1.5053 27.2961 1.5053 26.6001ZM8.5973 28.3641C9.1013 28.3641 9.5813 28.3041 10.0373 28.1841C10.5173 28.0401 10.9373 27.8121 11.2973 27.5001C11.6573 27.1641 11.9453 26.7441 12.1613 26.2401C12.3773 25.7121 12.4853 25.0521 12.4853 24.2601V23.4681L8.4893 24.0801C7.8653 24.1761 7.3373 24.4041 6.9053 24.7641C6.4973 25.1001 6.2933 25.6161 6.2933 26.3121C6.2933 26.8401 6.4853 27.3201 6.8693 27.7521C7.2533 28.1601 7.8293 28.3641 8.5973 28.3641ZM21.9915 31.4241V5.36007H26.7075V15.6561C27.1155 15.0321 27.7755 14.4801 28.6875 14.0001C29.6235 13.4961 30.7515 13.2441 32.0715 13.2441C33.3675 13.2441 34.5195 13.4841 35.5275 13.9641C36.5355 14.4201 37.3875 15.0681 38.0835 15.9081C38.8035 16.7241 39.3435 17.6961 39.7035 18.8241C40.0635 19.9521 40.2435 21.1761 40.2435 22.4961C40.2435 23.8401 40.0395 25.0881 39.6315 26.2401C39.2475 27.3681 38.6835 28.3521 37.9395 29.1921C37.2195 30.0321 36.3435 30.6921 35.3115 31.1721C34.2795 31.6281 33.1395 31.8561 31.8915 31.8561C30.6675 31.8561 29.5995 31.6161 28.6875 31.1361C27.7995 30.6561 27.1155 30.0321 26.6355 29.2641V31.4241H21.9915ZM35.4555 22.5321C35.4555 20.9001 35.0235 19.6641 34.1595 18.8241C33.3195 17.9601 32.2875 17.5281 31.0635 17.5281C30.4635 17.5281 29.8875 17.6361 29.3355 17.8521C28.8075 18.0681 28.3395 18.3921 27.9315 18.8241C27.5475 19.2321 27.2355 19.7481 26.9955 20.3721C26.7555 20.9961 26.6355 21.7161 26.6355 22.5321C26.6355 23.3241 26.7555 24.0321 26.9955 24.6561C27.2355 25.2801 27.5475 25.8081 27.9315 26.2401C28.3395 26.6721 28.8075 27.0081 29.3355 27.2481C29.8875 27.4641 30.4635 27.5721 31.0635 27.5721C32.2875 27.5721 33.3195 27.1401 34.1595 26.2761C35.0235 25.4121 35.4555 24.1641 35.4555 22.5321ZM51.9905 27.6081C52.5665 27.6081 53.1305 27.5001 53.6825 27.2841C54.2345 27.0681 54.7145 26.7561 55.1225 26.3481C55.5305 25.9161 55.8545 25.3881 56.0945 24.7641C56.3585 24.1401 56.4905 23.4081 56.4905 22.5681C56.4905 21.7281 56.3585 20.9961 56.0945 20.3721C55.8545 19.7481 55.5305 19.2321 55.1225 18.8241C54.7145 18.3921 54.2345 18.0681 53.6825 17.8521C53.1305 17.6361 52.5665 17.5281 51.9905 17.5281C51.4145 17.5281 50.8505 17.6361 50.2985 17.8521C49.7465 18.0681 49.2665 18.3921 48.8585 18.8241C48.4505 19.2321 48.1145 19.7481 47.8505 20.3721C47.6105 20.9961 47.4905 21.7281 47.4905 22.5681C47.4905 23.4081 47.6105 24.1401 47.8505 24.7641C48.1145 25.3881 48.4505 25.9161 48.8585 26.3481C49.2665 26.7561 49.7465 27.0681 50.2985 27.2841C50.8505 27.5001 51.4145 27.6081 51.9905 27.6081ZM51.9905 13.1721C53.3105 13.1721 54.5345 13.4121 55.6625 13.8921C56.8145 14.3481 57.7985 14.9961 58.6145 15.8361C59.4545 16.6521 60.1025 17.6361 60.5585 18.7881C61.0385 19.9401 61.2785 21.2001 61.2785 22.5681C61.2785 23.9361 61.0385 25.1961 60.5585 26.3481C60.1025 27.4761 59.4545 28.4601 58.6145 29.3001C57.7985 30.1401 56.8145 30.8001 55.6625 31.2801C54.5345 31.7361 53.3105 31.9641 51.9905 31.9641C50.6705 31.9641 49.4345 31.7361 48.2825 31.2801C47.1545 30.8001 46.1705 30.1401 45.3305 29.3001C44.5145 28.4601 43.8665 27.4761 43.3865 26.3481C42.9305 25.1961 42.7025 23.9361 42.7025 22.5681C42.7025 21.2001 42.9305 19.9401 43.3865 18.7881C43.8665 17.6361 44.5145 16.6521 45.3305 15.8361C46.1705 14.9961 47.1545 14.3481 48.2825 13.8921C49.4345 13.4121 50.6705 13.1721 51.9905 13.1721ZM76.5796 31.4241C76.5316 31.2321 76.4956 30.9561 76.4716 30.5961C76.4476 30.2361 76.4356 29.8761 76.4356 29.5161C75.9556 30.3561 75.2476 30.9681 74.3116 31.3521C73.3996 31.7121 72.4756 31.8921 71.5396 31.8921C70.4596 31.8921 69.4996 31.7121 68.6596 31.3521C67.8436 30.9681 67.1476 30.4641 66.5716 29.8401C65.9956 29.2161 65.5516 28.4841 65.2396 27.6441C64.9516 26.7801 64.8076 25.8681 64.8076 24.9081V13.7121H69.5956V23.9361C69.5956 24.9441 69.8476 25.7961 70.3516 26.4921C70.8796 27.1641 71.7076 27.5001 72.8356 27.5001C73.9156 27.5001 74.7436 27.1761 75.3196 26.5281C75.8956 25.8801 76.1836 25.0401 76.1836 24.0081V13.7121H80.9716V28.2201C80.9716 28.9161 80.9836 29.5521 81.0076 30.1281C81.0556 30.6801 81.1036 31.1121 81.1516 31.4241H76.5796ZM91.9854 13.7121H95.5494V17.9601H91.9854V25.3761C91.9854 26.1441 92.1534 26.6841 92.4894 26.9961C92.8494 27.2841 93.3774 27.4281 94.0734 27.4281C94.3614 27.4281 94.6494 27.4161 94.9374 27.3921C95.2254 27.3681 95.4294 27.3321 95.5494 27.2841V31.2441C95.3334 31.3401 94.9974 31.4361 94.5414 31.5321C94.1094 31.6281 93.5454 31.6761 92.8494 31.6761C91.1214 31.6761 89.7534 31.1961 88.7454 30.2361C87.7374 29.2761 87.2334 27.9321 87.2334 26.2041V17.9601H84.0294V13.7121H84.9294C85.8654 13.7121 86.5494 13.4481 86.9814 12.9201C87.4374 12.3681 87.6654 11.6961 87.6654 10.9041V8.42007H91.9854V13.7121Z" fill="#506269"/>
<path d="M52.3185 53.9498C56.0803 53.9498 59.0897 56.9455 59.0897 60.6276C59.0897 64.3097 56.0803 67.3054 52.3185 67.3054C48.6821 67.3054 45.6726 64.3097 45.6726 60.6276C45.7353 56.9455 48.7447 53.9498 52.3185 53.9498Z" fill="#A5410F"/>
<path d="M58.0866 71.9861H46.6758V109.182H58.0866V71.9861Z" fill="#A5410F"/>
<path d="M91.0023 71.9861V75.9803C89.9364 73.9832 86.7389 71.2996 80.5946 71.2996C70.3751 71.2996 63.2276 79.7248 63.2276 89.5231C63.2276 99.8206 70.6886 107.622 80.5946 107.622C86.0493 107.622 89.2468 105.437 90.6261 103.44V105.125C90.6261 111.866 87.1151 114.674 81.347 114.674C77.7106 114.674 74.9519 112.739 73.8234 109.931C73.698 109.681 73.5726 109.432 73.5099 109.182H63.0396C63.0396 109.182 63.0395 110.243 63.2276 111.304C64.4816 117.857 71.1274 124.535 81.9113 124.535C95.8926 124.535 101.912 115.236 101.912 104.564V71.9861H91.0023ZM82.7263 97.7611C78.1495 97.7611 74.7011 94.5782 74.7011 89.5231C74.7011 84.4055 78.4629 81.2851 82.7263 81.2851C86.9897 81.2851 90.6888 84.4055 90.6888 89.5231C90.6888 94.5782 87.3659 97.7611 82.7263 97.7611Z" fill="#A5410F"/>
<path d="M113.699 53.9498C117.46 53.9498 120.47 56.9455 120.47 60.6276C120.47 64.3097 117.46 67.3054 113.699 67.3054C110.062 67.3054 107.053 64.3097 107.053 60.6276C107.053 56.9455 110.062 53.9498 113.699 53.9498Z" fill="#A5410F"/>
<path d="M119.466 71.9861H108.056V109.182H119.466V71.9861Z" fill="#A5410F"/>
<path d="M39.5282 55.0108H28.2428V74.9193C27.3024 73.4839 24.5437 71.1124 18.1487 71.1124C7.55291 71.1124 0.0292969 79.4128 0.0292969 90.4592C0.0292969 101.942 7.99178 109.993 18.5248 109.993C23.039 109.993 26.8008 108.121 28.5563 105.625V109.182H34.0109H39.5282V55.0108ZM19.9669 99.8206C15.5154 99.8206 11.5655 96.7001 11.5655 90.5216C11.5655 84.3431 15.5154 81.3475 19.9669 81.3475C24.4183 81.3475 28.3682 84.3431 28.3682 90.5216C28.3682 96.7001 24.4183 99.8206 19.9669 99.8206Z" fill="#A5410F"/>
<path d="M244.108 87.7131L252.885 86.3401C254.892 86.0281 255.581 85.0919 255.581 83.7813C255.581 81.597 253.7 79.7247 250.064 79.7247C246.051 79.7247 243.92 82.4083 243.669 85.2168L233.763 83.2197C234.202 77.9149 239.155 70.8627 250.127 70.8627C262.227 70.8627 266.679 77.6028 266.679 85.2168V103.378C266.679 106.311 267.055 108.745 267.118 109.119H256.835C256.773 108.807 256.459 107.497 256.459 104.938C254.515 108.058 250.879 110.18 245.926 110.18C237.713 110.18 233.01 104.813 233.01 98.8843C233.073 92.3314 237.964 88.5868 244.108 87.7131ZM255.644 94.5781V92.9555L248.559 94.0788C246.177 94.4533 244.359 95.5767 244.359 98.1978C244.359 100.133 245.613 102.005 248.81 102.005C252.196 102.005 255.644 100.382 255.644 94.5781Z" fill="#506269"/>
<path d="M178.59 53.9498C182.351 53.9498 185.361 56.9455 185.361 60.6276C185.361 64.3097 182.351 67.3054 178.59 67.3054C174.953 67.3054 171.944 64.3097 171.944 60.6276C171.944 56.9455 174.953 53.9498 178.59 53.9498Z" fill="#506269"/>
<path d="M184.358 71.9861H172.947V109.182H184.358V71.9861Z" fill="#506269"/>
<path d="M217.274 71.9861V75.9803C216.208 73.9832 213.01 71.2996 206.866 71.2996C196.646 71.2996 189.499 79.7248 189.499 89.5231C189.499 99.8206 196.96 107.622 206.866 107.622C212.32 107.622 215.518 105.437 216.897 103.44V105.125C216.897 111.866 213.386 114.674 207.618 114.674C203.982 114.674 201.223 112.739 200.095 109.931C199.969 109.681 199.844 109.432 199.781 109.182H189.311C189.311 109.182 189.311 110.243 189.499 111.304C190.753 117.857 197.399 124.535 208.182 124.535C222.164 124.535 228.183 115.236 228.183 104.564V71.9861H217.274ZM208.998 97.7611C204.421 97.7611 200.972 94.5782 200.972 89.5231C200.972 84.4055 204.734 81.2851 208.998 81.2851C213.261 81.2851 216.96 84.4055 216.96 89.5231C216.96 94.5782 213.637 97.7611 208.998 97.7611Z" fill="#506269"/>
<path d="M165.8 55.0108H154.514V74.9193C153.574 73.4839 150.815 71.1124 144.42 71.1124C133.824 71.1124 126.301 79.4128 126.301 90.4592C126.301 101.942 134.263 109.993 144.796 109.993C149.31 109.993 153.072 108.121 154.828 105.625V109.182H160.282H165.8V55.0108ZM146.238 99.8206C141.787 99.8206 137.837 96.7001 137.837 90.5216C137.837 84.3431 141.787 81.3475 146.238 81.3475C150.69 81.3475 154.64 84.3431 154.64 90.5216C154.64 96.7001 150.69 99.8206 146.238 99.8206Z" fill="#506269"/>
</svg>
